<?xml version="1.0" encoding="utf-8"?>
<!-- Generator: Adobe Illustrator 19.2.1, SVG Export Plug-In . SVG Version: 6.00 Build 0)  -->
<svg version="1.1" id="Layer_2" xmlns="http://www.w3.org/2000/svg" xmlns:xlink="http://www.w3.org/1999/xlink" x="0px" y="0px"
	 viewBox="0 0 117.056 110.57" enable-background="new 0 0 117.056 110.57" xml:space="preserve">
<g>
	<path fill="#FFFFFF" d="M34.157,94.955c0.577-16.698,2.469-32.073,5.32-45.002h4.587v-2h-4.137
		c5.276-22.661,13.573-37.279,22.911-37.279S80.474,25.292,85.75,47.953h-0.628v2h1.078c2.851,12.929,4.743,28.304,5.32,45.002h5.2
		c-0.93-16.229-3.158-31.663-6.35-45.002h2.266v-2h-2.758C83.587,22.856,73.819,5.685,62.839,5.685
		c-17.01,0-31.126,41.183-33.882,89.27H34.157z"/>
	<rect y="47.953" fill="#FFFFFF" width="6.264" height="2"/>
	<rect x="12.266" y="47.953" fill="#FFFFFF" width="7.513" height="2"/>
	<rect x="24.408" y="47.953" fill="#FFFFFF" width="7.513" height="2"/>
	<rect x="48.694" y="47.953" fill="#FFFFFF" width="7.513" height="2"/>
	<rect x="60.837" y="47.953" fill="#FFFFFF" width="7.513" height="2"/>
	<rect x="72.98" y="47.953" fill="#FFFFFF" width="7.513" height="2"/>
	<rect x="97.266" y="47.953" fill="#FFFFFF" width="7.513" height="2"/>
	<rect y="100.15" fill="#FFFFFF" width="6.264" height="2"/>
	<polygon fill="#FFFFFF" points="15.502,6.235 9.266,0 3.03,6.235 7.554,6.235 8.266,6.235 8.266,110.57 10.266,110.57 
		10.266,6.235 10.977,6.235 	"/>
	<polygon fill="#FFFFFF" points="110.821,107.386 117.056,101.15 110.821,94.913 110.821,99.438 110.821,100.15 12.266,100.15 
		12.266,102.15 110.821,102.15 110.821,102.86 	"/>
</g>
</svg>
